<svg xmlns="http://www.w3.org/2000/svg" viewBox="0 0 320 320" role="img" aria-label="카드 사냥 요정">
  <defs>
    <linearGradient id="bg" x1="0" y1="0" x2="1" y2="1">
      <stop offset="0%" stop-color="#102746"/>
      <stop offset="100%" stop-color="#1f4f82"/>
    </linearGradient>
    <linearGradient id="wing" x1="0" y1="0" x2="1" y2="1">
      <stop offset="0%" stop-color="#bff4ff"/>
      <stop offset="100%" stop-color="#67d4ff"/>
    </linearGradient>
    <linearGradient id="outfit" x1="0" y1="0" x2="0" y2="1">
      <stop offset="0%" stop-color="#94ebb5"/>
      <stop offset="100%" stop-color="#1f9b60"/>
    </linearGradient>
    <linearGradient id="net" x1="0" y1="0" x2="1" y2="1">
      <stop offset="0%" stop-color="#9cc7ff"/>
      <stop offset="100%" stop-color="#e8f2ff"/>
    </linearGradient>
  </defs>

  <rect x="8" y="8" width="304" height="304" rx="44" fill="url(#bg)"/>

  <ellipse cx="95" cy="145" rx="50" ry="34" fill="url(#wing)" opacity="0.82"/>
  <ellipse cx="224" cy="145" rx="50" ry="34" fill="url(#wing)" opacity="0.82"/>
  <ellipse cx="95" cy="174" rx="38" ry="28" fill="url(#wing)" opacity="0.6"/>
  <ellipse cx="224" cy="174" rx="38" ry="28" fill="url(#wing)" opacity="0.6"/>

  <circle cx="150" cy="98" r="24" fill="#ffd9b3"/>
  <path d="M126 92 C134 70, 166 70, 174 92" stroke="#342216" stroke-width="6" fill="none" stroke-linecap="round"/>
  <circle cx="141" cy="99" r="3.5" fill="#1f1b19"/>
  <circle cx="160" cy="99" r="3.5" fill="#1f1b19"/>
  <path d="M139 113 Q150 120 163 112" stroke="#ce6977" stroke-width="4" fill="none" stroke-linecap="round"/>

  <path d="M122 138 L178 138 L198 228 L106 228 Z" fill="url(#outfit)"/>
  <rect x="139" y="146" width="28" height="46" rx="9" fill="#23724a" opacity="0.6"/>

  <path d="M115 155 L85 132" stroke="#ffdca7" stroke-width="6" stroke-linecap="round"/>
  <path d="M180 160 L224 120" stroke="#ffdca7" stroke-width="6" stroke-linecap="round"/>

  <circle cx="246" cy="104" r="28" fill="none" stroke="url(#net)" stroke-width="5"/>
  <path d="M222 104 H270 M246 80 V128" stroke="url(#net)" stroke-width="2"/>
  <path d="M229 87 L263 121 M263 87 L229 121" stroke="url(#net)" stroke-width="2"/>

  <rect x="238" y="166" width="26" height="40" rx="5" fill="#f3f8ff" stroke="#84a8d6" stroke-width="2" transform="rotate(14 251 186)"/>
  <rect x="232" y="171" width="26" height="40" rx="5" fill="#ffffff" stroke="#84a8d6" stroke-width="2" transform="rotate(-4 245 191)"/>
  <rect x="226" y="178" width="26" height="40" rx="5" fill="#f7fbff" stroke="#84a8d6" stroke-width="2" transform="rotate(-17 239 198)"/>

  <circle cx="270" cy="72" r="4" fill="#ffe49e"/>
  <circle cx="60" cy="82" r="4" fill="#ffe49e"/>
  <circle cx="84" cy="60" r="3" fill="#ffe49e"/>
</svg>
